<svg version="1.2" baseProfile="tiny-ps" xmlns="http://www.w3.org/2000/svg" viewBox="0 0 280 400" width="280" height="400">
	<title>ea51a89fe74d266577d9b6867e685113</title>
	<style>
		tspan { white-space:pre }
		.shp0 { fill: #000000 } 
		.shp1 { fill: #ffffff } 
	</style>
	<g id="Beer">
		<path id="Shape 3" class="shp0" d="M33.92 156.15C33.92 156.15 70.71 165.66 77.62 166.7C84.53 167.74 114.19 168.95 116.8 168.21C119.4 167.46 126.95 162.9 127.35 159.17C127.75 155.43 127.17 148.87 115.29 148.62C103.42 148.37 87.79 149.14 76.11 147.11C64.44 145.09 34.02 134.98 30.91 133.55C27.8 132.13 10.67 118.78 8.31 103.42C7.47 97.98 8.13 81.93 12.83 74.79C17.53 67.64 24.19 60.34 33.92 59.72C43.66 59.1 42.97 61.23 42.97 61.23C42.97 61.23 41.68 43.79 56.53 28.08C71.38 12.36 82.22 12.99 91.18 13.01C100.15 13.03 113.31 17.5 121.32 25.06C129.33 32.62 134.52 45.05 134.88 46.16C135.24 47.27 141.61 41.89 143.92 41.64C144.23 41.6 152.87 41.73 155.97 43.14C159.08 44.56 165.24 48.55 166.52 53.69C167.8 58.83 169.54 65.75 169.54 65.75C169.54 65.75 180.09 54.82 195.15 52.18C210.21 49.55 228.28 55.5 234.33 64.24C240.38 72.97 252.51 88.23 249.4 103.42C246.28 118.6 235.47 136.44 228.3 141.09C221.13 145.73 208.71 150.13 208.71 150.13L208.71 166.7C208.71 166.7 252.89 168.1 256.93 168.21C260.97 168.31 271.74 177.07 272 184.78C272.25 192.5 263.55 262.98 261.45 269.16C259.35 275.34 238.02 305.62 229.81 311.35C221.6 317.08 214.74 320.27 210.22 321.9C205.7 323.53 195.15 326.42 195.15 326.42L193.64 326.42L190.63 367.1C190.63 367.1 173.34 376.96 171.04 377.65C168.74 378.34 143.62 384.91 140.91 385.19C138.19 385.47 105.88 386.83 97.21 386.69C88.54 386.55 68.48 383.45 65.57 382.17C62.65 380.89 42.58 375.83 41.46 374.64C40.34 373.45 23.32 366.18 21.87 364.09C20.42 362 12.83 355.05 12.83 355.05C12.83 355.05 12.5 269.05 12.83 263.14C13.16 257.22 18.15 179.79 18.86 174.23C19.57 168.68 20.36 153.14 20.36 153.14C20.36 153.14 22.14 151.51 24.88 151.63C27.62 151.75 33.92 156.15 33.92 156.15Z" />
		<path id="Shape 4" class="shp1" d="M44.47 225.47C44.47 225.47 40.05 255.77 39.95 258.61C39.85 261.46 38.14 292.32 38.44 293.27C38.75 294.22 38.44 309.85 38.44 309.85C38.44 309.85 42.6 316.41 47.49 315.87C52.37 315.33 55.31 311.2 56.53 309.85C57.74 308.49 57.75 272.09 58.03 267.66C58.32 263.23 60.3 232.22 61.05 229.99C61.8 227.76 63.75 213.65 64.06 211.9C64.37 210.15 65.37 201.48 64.06 199.85C62.75 198.22 58.3 195.15 56.53 195.33C54.76 195.51 48.49 196.84 47.49 198.34C46.48 199.85 44.47 225.47 44.47 225.47Z" />
		<path id="Shape 5" class="shp1" d="M98.72 222.45C98.27 227.4 96.06 260.36 95.7 264.64C95.34 268.92 92.69 297.79 92.69 297.79L91.18 315.87C91.18 315.87 93.37 321.66 97.21 321.9C101.05 322.14 106.94 319.14 107.76 317.38C108.58 315.62 110.77 296.28 110.77 296.28C110.77 296.28 114.95 252.45 115.29 248.07C115.63 243.68 116.61 214.36 116.8 213.41C116.98 212.46 117.56 201.28 110.77 201.36C103.98 201.43 99.04 201.87 98.72 208.89C98.39 215.91 99.16 217.5 98.72 222.45Z" />
		<path id="Shape 6" class="shp1" d="M148.44 213.41L142.41 315.87C142.41 315.87 144.42 321.64 149.95 321.9C155.48 322.16 159.36 320.15 160.5 317.38C161.63 314.61 165.02 260.12 165.02 260.12L166.52 210.4C166.52 210.4 167.42 205.15 160.5 204.37C153.57 203.59 150.57 205.31 149.95 207.38C149.33 209.46 148.44 213.41 148.44 213.41Z" />
		<path id="Shape 7" class="shp1" d="M205.7 205.88L198.16 284.23C198.16 284.23 209.16 288.22 220.77 266.15C232.37 244.08 231.03 229.44 231.31 225.47C231.59 221.49 232.82 207.38 232.82 207.38L205.7 205.88Z" />
	</g>
</svg>