<svg version="1.2" baseProfile="tiny-ps" xmlns="http://www.w3.org/2000/svg" viewBox="0 0 280 400" width="280" height="400">
	<title>ea51a89fe74d266577d9b6867e685113</title>
	<style>
		tspan { white-space:pre }
		.shp0 { fill: #000000 } 
		.shp1 { fill: #ffffff } 
	</style>
	<path id="Shape 8" class="shp0" d="M13.05 154.72L2 203.11C2 203.11 6.5 214.28 8.63 218.17C10.76 222.06 10.84 227.85 10.84 227.85C10.84 227.85 10.59 239.02 11.94 241.83C13.3 244.64 32.1 281.49 32.93 283.77C33.76 286.04 33.5 291.75 31.83 293.45C30.15 295.14 29.62 305.27 29.62 305.27C29.62 305.27 59.81 314.49 61.65 309.58C63.49 304.66 64.96 297.75 64.96 297.75C64.96 297.75 74.73 268.61 70.49 257.96C66.24 247.3 59.44 233.22 59.44 233.22C59.44 233.22 54.67 215.55 53.92 212.79C53.17 210.04 50.6 205.27 50.6 205.27C50.6 205.27 60.39 197.66 59.44 193.44C58.49 189.21 56.13 186.98 56.13 186.98C56.13 186.98 51.68 189.84 49.5 192.36C47.32 194.88 43.74 196.56 43.74 196.56C43.74 196.56 36.75 193.47 35.14 199.89C33.53 206.3 34.49 200.09 34.49 200.09L33 208.32C33 208.32 31.04 211.51 30.15 210.48C29.27 209.45 31.06 204.51 31.06 204.51C31.06 204.51 37.58 190.67 39.56 189.13C41.53 187.6 51.54 179.04 50.6 175.15C49.67 171.27 49.5 167.63 49.5 167.63C49.5 167.63 45.03 167.96 43.98 169.78C42.93 171.6 43.98 157.55 42.87 156.87C41.76 156.19 29.62 166.55 29.62 166.55L22.99 175.15C22.99 175.15 22.35 162.74 21.88 160.1C21.41 157.46 16.36 155.8 16.36 155.8L13.05 154.72Z" />
	<path id="Shape 9" class="shp0" d="M178.74 124.61L186.47 132.14L169.9 137.52C169.9 137.52 178.9 142.21 182.05 145.04C182.28 145.25 198.62 142.89 198.62 142.89C198.62 142.89 206.58 162.03 209.67 164.4C212.77 166.77 219.53 177.9 225.14 179.46C230.74 181.01 240.22 184.23 241.71 185.91C243.19 187.59 253.86 199.89 253.86 199.89C253.86 199.89 264.63 191.97 267.11 189.13C269.6 186.3 276.55 179.84 277.05 177.31C277.56 174.77 269.94 166.75 269.32 165.48C268.7 164.2 242.13 125.45 241.71 123.54C241.28 121.63 233.97 115.57 230.66 113.86C227.35 112.15 215.19 106.33 215.19 106.33L197.52 96.65C197.52 96.65 190.32 94.4 183.16 94.5C176 94.61 158.86 91.28 158.86 91.28C158.86 91.28 149.84 87.52 146.71 88.05C143.57 88.58 142.21 90.56 143.39 91.28C144.58 91.99 145.06 97.34 147.81 98.8C150.56 100.27 158.02 103.87 161.07 104.18C164.12 104.49 156.68 105.9 155.54 106.33C154.41 106.77 140.43 107.07 138.97 108.48C137.52 109.89 137.87 109.25 138.97 110.63C140.08 112.02 141.63 115.64 144.5 117.08C147.37 118.53 150.02 118.16 150.02 118.16C150.02 118.16 151.85 121.8 154.44 123.54C157.03 125.28 165.2 125.57 167.69 124.61C170.19 123.66 178.74 124.61 178.74 124.61Z" />
	<path id="Shape 10" class="shp0" d="M100.44 267.04C101 265 102.49 263.55 102.49 263.55C102.49 263.55 66.07 240.21 66.07 200.96C66.07 161.71 98.66 129.99 138.97 129.99C179.29 129.99 211.88 161.71 211.88 200.96C211.88 240.21 177.64 262.26 177.64 262.26C177.64 262.26 180.24 265.39 180.95 267.64C181.66 269.88 180.95 273.01 180.95 273.01C180.95 273.01 182.56 275.13 183.16 276.24C183.76 277.35 184.29 282.24 182.05 283.77C179.82 285.29 159.39 291.32 145.6 291.29C131.81 291.27 125.35 290.39 122.4 290.22C119.46 290.05 105.94 288.14 102.52 285.92C99.11 283.7 96.81 282.79 97 279.47C97.19 276.14 100.09 273.44 100.31 273.01C100.53 272.59 100.01 268.63 100.44 267.04Z" />
	<path id="Shape 10 copy" class="shp1" d="M138.97 269.82C99.86 269.82 68.24 239.04 68.24 200.96C68.24 162.88 99.86 132.1 138.97 132.1C178.09 132.1 209.71 162.88 209.71 200.96C209.71 239.04 178.09 269.82 138.97 269.82Z" />
</svg>