<svg version="1.2" baseProfile="tiny-ps" xmlns="http://www.w3.org/2000/svg" viewBox="0 0 280 400" width="280" height="400">
	<title>ea51a89fe74d266577d9b6867e685113</title>
	<style>
		tspan { white-space:pre }
		.shp0 { fill: #000000 } 
	</style>
	<path id="Werewolf" class="shp0" d="M140 5C140 5 135.3 3.84 129 13C122.7 22.16 106 55 106 55C106 55 100.66 64.14 93 68C85.34 71.86 65 84 65 84L70 86C70 86 44.86 107.4 45 114C45 114.05 49.24 113.81 49.24 113.81C49.24 113.81 29.66 147.25 28 161C27.82 162.52 33 159 33 159C33 159 21.09 226.31 19 232C17.7 235.54 18 236 18 236L22.06 232.32C22.06 232.32 6.38 274.54 9 280C9.45 280.94 16 275 16 275C16 275 21 309.16 41 322C41.77 322.5 43 322 43 322C43.61 322.06 44.36 309.63 44.36 309.63C44.36 309.63 74.46 344.5 100 347C101.35 347.13 117.12 353.09 120 355C122.88 356.91 125 358 125 358C125 358 118.29 347.82 119 346C119.71 344.18 122 345 122 345C122 345 153.05 359.72 159 364C164.95 368.28 166.42 368.84 170 372C173.58 375.16 174 376 174 376C174 376 174.23 366.62 175 366C175.77 365.38 180 370 180 370L195 387C195 387 196.09 377.22 198 377C199.91 376.78 204.85 386.3 205 388C205.15 389.7 207 395 207 395C207 395 217.86 366.91 217 345C216.29 326.98 217.55 333.32 218 333C218.45 332.68 223 340 223 340C223 340 211.51 296.04 213 294C214.49 291.96 217 296 217 296C217 296 209.14 272.7 197.92 263.83C186.7 254.97 175.55 230.72 175.55 230.72C175.55 230.72 167.75 204.35 176 198C184.25 191.65 201.01 196.87 204 198C206.99 199.13 217.38 203.26 220 205C222.62 206.74 225.89 210.3 231 210C236.11 209.7 239.41 206.37 241 205C242.59 203.63 244.13 199.09 246 198C247.87 196.91 254 199.21 261 193C268 186.79 273.33 179.81 272 177C270.67 174.19 234.68 144.23 234.68 144.23C234.68 144.23 228.13 137.57 226 131C223.87 124.43 224.69 111.34 222 109C219.31 106.66 193.57 74.86 190.3 64.59C187.04 54.31 191.26 45.54 192 44C192.74 42.46 194.6 24.35 194 22C193.4 19.65 192.58 13.17 190 13C187.42 12.83 168.66 35.11 168.66 35.11C168.66 35.11 156.81 45.38 150.55 44.52C149.34 44.36 147.2 36.45 145.68 32.25C144.16 28.06 142.91 6.79 140 5Z" />
</svg>