<svg version="1.2" baseProfile="tiny-ps" xmlns="http://www.w3.org/2000/svg" viewBox="0 0 280 400">
	<title>ea51a89fe74d266577d9b6867e685113</title>
	<style>
		tspan { white-space:pre }
		.shp0 { fill: #000000 } 
		.shp1 { fill: #ffffff } 
	</style>
	<g id="Folder 1">
		<path id="Shape 1" class="shp0" d="M57.33 21.12C57.33 21.12 64.21 22.07 66.41 22.93C68.61 23.8 72.77 25.66 72.77 25.66C72.77 25.66 72.06 26.8 71.86 29.29C71.66 31.78 72.67 36.01 74.58 34.74C76.5 33.46 78.21 31.11 78.21 31.11L82.75 34.74C82.75 34.74 82.51 38.27 83.66 37.46C84.81 36.65 87.53 27.98 88.2 27.47C88.87 26.97 88 30.32 88.2 31.11C88.41 31.89 93.95 22 94.56 22.03C95.17 22.05 90.02 32.01 90.02 32.01C90.02 32.01 90.79 31.31 91.83 30.2C92.87 29.08 97.28 24.75 97.28 24.75C97.28 24.75 96.22 28.33 96.37 29.29C96.53 30.25 101.48 24.99 103.64 22.93C105.79 20.88 111.83 18.05 111.81 18.39C111.78 18.74 107.59 22.27 107.27 22.93C106.95 23.6 105.45 25.66 105.45 25.66C105.45 25.66 119.29 17.53 121.8 16.58C124.3 15.63 138.26 11.56 137.23 12.04C133.58 13.74 128.15 18.39 128.15 18.39C128.15 18.39 143.69 13.36 145.4 12.95C147.06 12.55 136.32 18.39 136.32 18.39C136.32 18.39 148.89 15.73 151.76 15.67C154.62 15.62 168.09 17.45 167.19 17.49C155.06 18.02 156.3 21.12 156.3 21.12C156.3 21.12 164.7 21.53 169.92 22.93C175.13 24.34 179.38 26.65 180.81 27.47C182.25 28.3 183.54 30.2 183.54 30.2C183.54 30.2 167.95 27.61 166.28 30.2C166.05 30.57 168.34 30.98 171.73 31.11C175.13 31.24 184.44 38.37 184.44 38.37C184.44 38.37 172.87 31.79 170.17 32.49C167.46 33.19 172.5 34.19 173.55 34.74C174.6 35.28 183.02 41.16 181.72 41.09C176.61 40.82 177.18 42 177.18 42C177.18 42 182.05 46.56 183.54 49.27C185.03 51.97 194.32 71.92 194.43 80.14C194.55 88.35 194.74 98.01 195.34 99.2C195.94 100.39 199.57 105.47 199.88 109.19C200.18 112.91 199.88 121.9 199.88 121.9L195.81 116.86C195.81 116.86 194.25 115.64 193.52 116.45C192.8 117.27 193.69 119.63 193.52 120.09C193.36 120.54 185.66 117.54 185.35 118.27C185.04 119 181.79 129.64 181.72 130.98C181.65 132.32 181.37 136.5 184.44 136.43C187.52 136.36 192.83 134.39 193.52 132.8C194.21 131.2 195.34 128.26 195.34 128.26C195.34 128.26 195.68 126.66 196.25 129.16C196.81 131.67 197.47 135 198.06 133.7C198.66 132.41 203.94 126.65 204.42 123.72C204.89 120.78 203.7 107.2 201.69 103.74C199.69 100.28 203.05 86.63 204.42 84.68C205.79 82.72 207.34 80.05 208.05 80.14C208.76 80.22 206.46 83.65 207.14 83.77C207.83 83.88 215.49 76.07 225.3 73.78C235.11 71.49 239.91 73.94 241.64 74.69C243.38 75.43 248 78.32 248 78.32C248 78.32 235.88 77.16 233.47 79.23C231.07 81.29 225.36 86.12 224.39 88.31C223.43 90.49 221.43 99.88 224.39 103.74C227.36 107.6 230.19 113.77 230.75 114.64C231.31 115.51 233.31 115.85 233.47 114.64C233.64 113.43 234.38 111.01 234.38 111.01C234.38 111.01 235.94 114.37 236.2 115.55C236.45 116.72 237.36 127.82 232.57 132.8C227.77 137.77 222.21 143.27 217.13 145.51C212.05 147.74 208.05 150.05 208.05 150.05L216.22 150.05C216.22 150.05 213.32 154.38 209.87 154.59C206.41 154.8 196.61 154.99 193.52 152.77C190.43 150.55 182.39 145.21 181.72 144.6C181.05 143.99 179.94 145.02 179.9 146.42C179.86 147.81 180.18 154.84 180.81 155.5C181.44 156.15 195.63 170.85 200.79 170.93C205.94 171.01 218.04 171.84 218.04 171.84C218.04 171.84 215.87 195.25 217.13 199.08C218.39 202.9 218.95 203.62 218.95 203.62C218.95 203.62 210.81 203.41 205.33 201.8C199.84 200.19 194.92 198.74 197.16 196.35C199.39 193.97 203.21 194.4 203.21 194.4C203.21 194.4 211.64 190.98 213.56 183.58C214.02 181.8 213.9 178.63 211.27 176.26C209.25 174.44 202.8 179.32 198.06 180.01C193.33 180.69 178.02 186.93 169.01 181.83C160 176.72 158.49 167.51 159.54 161.3C160.59 155.09 160.78 154.54 160.78 154.54C160.78 154.54 151.55 150.4 143.59 152.77C135.62 155.15 128.82 158.59 125.43 161.85C122.03 165.12 118.28 169.31 119.98 175.47C121.68 181.63 122.7 180.92 122.7 180.92C122.7 180.92 114.81 185.96 116.35 191.81C116.55 192.6 111.08 191.24 109.08 190.91C107.09 190.57 101.17 188.9 100.91 189.09C100.65 189.28 100.61 186.14 102.73 185.46C104.85 184.77 108.89 185.51 108.89 185.51L116.22 179.96C116.22 179.96 116.98 173.49 115.23 169.95C113.47 166.41 109.99 161.85 109.99 161.85C109.99 161.85 110.65 152.48 114.53 147.32C118.41 142.16 125.04 135.87 125.04 135.87C125.04 135.87 121.76 135.15 132.72 133.16C143.67 131.17 152.35 134.95 152.35 134.95C152.35 134.95 150.85 124.86 145.4 120.09C139.95 115.31 139.22 112.98 135.41 111.91C131.61 110.84 128.15 107.37 128.15 107.37C128.15 107.37 126.9 109.14 128.15 111.01C129.4 112.87 131.78 115.55 131.78 115.55L123.61 115.55C123.61 115.55 122.94 114.11 121.8 114.64C120.65 115.16 105.09 133.4 106.36 144.6C106.44 145.29 110.9 142.78 110.9 142.78C110.9 142.78 106.54 148.64 106.36 150.05C106.18 151.46 110.9 148.23 110.9 148.23C110.9 148.23 102.37 156.16 98.19 157.31C94.01 158.46 87.06 160.53 85.48 161.85C83.89 163.17 82.07 172 86.39 173.65C90.7 175.31 92.79 177.33 92.74 178.19C92.7 179.06 92.4 183.01 93.65 183.64C94.89 184.27 96.48 186.76 95.46 187.27C94.45 187.79 91.07 188.65 90.02 187.27C88.97 185.9 90.52 180.59 83.66 180.01C82.4 179.9 83.7 189.35 80.94 189.09C78.17 188.83 72.48 189.67 71.86 186.37C71.23 183.07 74.83 181.73 74.58 179.1C74.33 176.47 72.25 154.21 76.4 142.78C79.8 133.4 92.38 111.7 93.65 109.19C94.91 106.68 100.35 97.67 97.28 91.94C94.22 86.2 94.56 89.21 94.56 89.21C94.56 89.21 87.31 93.04 85.48 96.48C83.64 99.91 77.09 106.54 78.21 109.19C79.34 111.84 80.03 111.91 80.03 111.91C80.03 111.91 71.63 114.86 69.13 113.73C66.63 112.59 57.16 108.4 55.51 105.56C53.87 102.72 51.69 100.13 52.79 100.11C53.89 100.09 55.51 100.11 55.51 100.11C55.51 100.11 55.9 96.11 56.42 95.57C56.95 95.03 59.15 100.11 59.15 100.11C59.15 100.11 59.58 100.55 60.05 100.11C60.53 99.67 61.87 97.39 61.87 97.39C61.87 97.39 63.63 99.84 63.69 99.2C63.74 98.56 64.59 91.03 64.59 91.03C64.59 91.03 69.9 97.3 70.04 95.57C70.18 93.84 71.21 88.36 71.86 87.4C72.51 86.44 74.25 91.15 75.49 91.03C76.73 90.91 77.3 91.39 77.31 90.12C77.31 88.85 77.64 82.58 78.21 81.95C78.79 81.32 81.83 84.59 82.75 83.77C83.68 82.95 81.85 79.23 81.85 79.23C81.85 79.23 80.68 76.46 80.94 75.6C81.2 74.73 83.68 77.84 83.66 76.5C83.64 75.17 79.77 64.21 79.12 67.42C78.57 70.15 77.31 71.96 77.31 71.96C77.31 71.96 74.56 68.44 73.67 68.33C72.79 68.23 71.78 67.98 71.86 69.24C71.94 70.5 72.39 76.19 71.86 76.5C71.33 76.82 68.12 73.35 67.32 73.78C66.6 74.17 65.61 74.61 65.5 76.5C65.39 78.39 65.9 83.64 65.5 83.77C65.1 83.9 61.19 81.25 60.96 81.95C60.73 82.65 59.05 81.88 59.15 83.77C59.24 85.66 59.44 89.34 59.15 90.12C58.85 90.91 55.19 87.43 54.61 88.31C54.02 89.18 53.74 92.81 53.7 93.75C53.65 94.7 52.79 94.66 52.79 94.66C52.79 94.66 50.58 93.42 50.07 93.75C49.55 94.09 48.46 93.49 46.44 94.66C44.41 95.83 44.62 98.29 44.62 98.29C44.62 98.29 38.9 91.67 37.36 91.94C36.17 92.15 36.45 87.4 36.45 87.4C36.45 87.4 36.18 86.21 35.54 86.49C34.9 86.77 31.06 83.8 31 82.86C30.96 82.15 32.49 80.48 33.72 80.14C34.96 79.79 36.17 79.06 38.26 78.32C40.36 77.58 42.35 77.83 42.8 77.41C43.26 76.99 47.2 71.47 48.25 71.06C49.3 70.64 47.34 74.69 47.34 74.69C47.34 74.69 48.43 74.4 49.16 73.78C49.88 73.16 49.16 75.6 49.16 75.6C49.16 75.6 48.09 77.73 51.88 74.69C55.68 71.65 61.87 65.61 61.87 65.61C61.87 65.61 54.33 63.66 53.7 62.88C53.06 62.11 59.76 62.6 63.69 58.34C67.61 54.09 69.34 50.97 68.23 51.08C67.11 51.2 60.05 58.34 60.05 58.34C60.05 58.34 63.49 50.27 63.69 49.27C63.88 48.26 63.11 48.21 61.87 48.36C60.63 48.5 56.42 48.36 56.42 48.36C56.42 48.36 60.45 47.35 60.96 46.54C61.48 45.74 61.47 44.34 60.05 43.82C58.64 43.29 49.36 37.19 49.16 36.55C48.96 35.92 49.71 35.49 50.98 35.65C52.24 35.8 56.85 37.43 58.24 38.37C59.63 39.31 67.12 45.36 67.32 44.73C67.52 44.09 63.91 37.65 63.69 37.46C63.46 37.27 58.74 29.04 58.24 27.47C57.73 25.91 57.27 23.08 57.33 22.93C57.39 22.79 57.33 21.12 57.33 21.12Z" />
		<path id="Shape 2" class="shp1" d="M70.04 59.25C68.27 60.59 67.29 60.99 67.32 61.98C67.35 62.96 69.85 64.36 70.95 63.79C72.05 63.22 73.77 60.42 73.67 60.16C73.58 59.9 73.35 58.25 72.77 58.34C72.19 58.44 71.82 57.92 70.04 59.25Z" />
	</g>
	<g id="Folder 1 copy">
		<path id="Shape 1" class="shp0" d="M222.67 378.64C222.67 378.64 215.79 377.69 213.59 376.82C211.38 375.96 207.23 374.1 207.23 374.1C207.23 374.1 207.94 372.95 208.14 370.47C208.34 367.98 207.33 363.75 205.42 365.02C203.5 366.29 201.78 368.65 201.78 368.65L197.24 365.02C197.24 365.02 197.49 361.49 196.34 362.29C195.18 363.1 192.47 371.78 191.8 372.28C191.13 372.79 192 369.44 191.8 368.65C191.59 367.87 186.05 377.75 185.44 377.73C184.83 377.71 189.98 367.74 189.98 367.74C189.98 367.74 189.2 368.44 188.16 369.56C187.13 370.67 182.72 375.01 182.72 375.01C182.72 375.01 183.78 371.42 183.62 370.47C183.47 369.51 178.52 374.77 176.36 376.82C174.2 378.87 168.16 381.71 168.19 381.36C168.22 381.01 172.41 377.48 172.73 376.82C173.05 376.16 174.55 374.1 174.55 374.1C174.55 374.1 160.71 382.23 158.2 383.18C155.7 384.13 141.74 388.2 142.77 387.72C146.41 386.01 151.85 381.36 151.85 381.36C151.85 381.36 136.31 386.4 134.6 386.81C132.94 387.21 143.67 381.36 143.67 381.36C143.67 381.36 131.1 384.03 128.24 384.09C125.38 384.14 111.91 382.31 112.8 382.27C124.94 381.74 123.7 378.64 123.7 378.64C123.7 378.64 115.3 378.23 110.08 376.82C104.87 375.42 100.62 373.11 99.19 372.28C97.75 371.46 96.46 369.56 96.46 369.56C96.46 369.56 112.05 372.15 113.71 369.56C113.95 369.19 111.66 368.78 108.26 368.65C104.87 368.52 95.55 361.39 95.55 361.39C95.55 361.39 107.13 367.97 109.83 367.27C112.53 366.57 107.5 365.56 106.45 365.02C105.4 364.48 96.97 358.59 98.28 358.66C103.39 358.94 102.82 357.76 102.82 357.76C102.82 357.76 97.95 353.2 96.46 350.49C94.97 347.78 85.68 327.84 85.57 319.62C85.45 311.4 85.25 301.74 84.66 300.55C84.06 299.37 80.42 294.28 80.12 290.57C79.81 286.85 80.12 277.86 80.12 277.86L84.19 282.9C84.19 282.9 85.75 284.12 86.47 283.3C87.2 282.49 86.31 280.13 86.47 279.67C86.64 279.21 94.34 282.22 94.65 281.49C94.95 280.76 98.2 270.11 98.28 268.78C98.35 267.44 98.63 263.26 95.55 263.33C92.48 263.4 87.16 265.36 86.47 266.96C85.78 268.56 84.66 271.5 84.66 271.5C84.66 271.5 84.31 273.1 83.75 270.59C83.19 268.09 82.53 264.76 81.93 266.05C81.34 267.35 76.05 273.1 75.58 276.04C75.1 278.97 76.3 292.55 78.3 296.01C80.3 299.48 76.95 313.13 75.58 315.08C74.21 317.04 72.66 319.71 71.95 319.62C71.24 319.54 73.54 316.11 72.85 315.99C72.17 315.87 64.5 323.68 54.7 325.98C44.89 328.27 40.09 325.81 38.35 325.07C36.62 324.32 32 321.44 32 321.44C32 321.44 44.12 322.59 46.52 320.53C48.93 318.46 54.64 313.64 55.6 311.45C56.57 309.26 58.57 299.87 55.6 296.01C52.64 292.16 49.81 285.99 49.25 285.12C48.69 284.25 46.69 283.91 46.52 285.12C46.36 286.33 45.62 288.75 45.62 288.75C45.62 288.75 44.06 285.38 43.8 284.21C43.55 283.04 42.64 271.93 47.43 266.96C52.23 261.99 57.79 256.48 62.87 254.25C67.94 252.01 71.95 249.71 71.95 249.71L63.78 249.71C63.78 249.71 66.67 245.38 70.13 245.17C73.59 244.96 83.38 244.77 86.47 246.99C89.57 249.2 97.6 254.55 98.28 255.16C98.95 255.76 100.05 254.73 100.09 253.34C100.13 251.95 99.81 244.91 99.19 244.26C98.56 243.61 84.36 228.91 79.21 228.83C74.06 228.75 61.96 227.92 61.96 227.92C61.96 227.92 64.12 204.5 62.87 200.68C61.61 196.85 61.05 196.14 61.05 196.14C61.05 196.14 69.19 196.34 74.67 197.96C80.15 199.57 85.08 201.02 82.84 203.4C80.61 205.79 76.79 205.36 76.79 205.36C76.79 205.36 68.36 208.78 66.44 216.17C65.97 217.96 66.1 221.12 68.73 223.49C70.75 225.32 77.2 220.43 81.93 219.75C86.67 219.06 101.98 212.82 110.99 217.93C120 223.04 121.51 232.24 120.46 238.46C119.41 244.67 119.21 245.22 119.21 245.22C119.21 245.22 128.45 249.36 136.41 246.99C144.38 244.61 151.18 241.17 154.57 237.91C157.96 234.64 161.71 230.44 160.02 224.29C158.32 218.13 157.29 218.84 157.29 218.84C157.29 218.84 165.19 213.8 163.65 207.94C163.44 207.16 168.91 208.51 170.91 208.85C172.91 209.19 178.82 210.86 179.09 210.67C179.35 210.48 179.39 213.61 177.27 214.3C175.15 214.98 171.1 214.25 171.1 214.25L163.78 219.8C163.78 219.8 163.01 226.27 164.77 229.81C166.53 233.35 170.01 237.91 170.01 237.91C170.01 237.91 169.34 247.27 165.47 252.43C161.59 257.59 154.95 263.89 154.95 263.89C154.95 263.89 158.24 264.6 147.28 266.59C136.33 268.59 127.64 264.81 127.64 264.81C127.64 264.81 129.15 274.9 134.6 279.67C140.04 284.44 140.77 286.77 144.58 287.84C148.39 288.91 151.85 292.38 151.85 292.38C151.85 292.38 153.1 290.61 151.85 288.75C150.6 286.89 148.21 284.21 148.21 284.21L156.39 284.21C156.39 284.21 157.06 285.64 158.2 285.12C159.35 284.6 174.91 266.36 173.64 255.16C173.56 254.47 169.1 256.97 169.1 256.97C169.1 256.97 173.46 251.12 173.64 249.71C173.82 248.3 169.1 251.52 169.1 251.52C169.1 251.52 177.63 243.6 181.81 242.45C185.99 241.29 192.94 239.23 194.52 237.91C196.1 236.58 197.92 227.75 193.61 226.1C189.3 224.45 187.21 222.43 187.26 221.56C187.3 220.7 187.59 216.75 186.35 216.11C185.1 215.48 183.52 213 184.53 212.48C185.54 211.97 188.93 211.11 189.98 212.48C191.03 213.86 189.48 219.17 196.34 219.75C197.59 219.85 196.29 210.41 199.06 210.67C201.83 210.93 207.51 210.09 208.14 213.39C208.76 216.69 205.16 218.02 205.42 220.65C205.67 223.29 207.74 245.55 203.6 256.97C200.19 266.36 187.61 288.05 186.35 290.57C185.08 293.08 179.65 302.08 182.72 307.82C185.78 313.55 185.44 310.54 185.44 310.54C185.44 310.54 192.69 306.71 194.52 303.28C196.35 299.84 202.91 293.21 201.78 290.57C200.66 287.92 199.97 287.84 199.97 287.84C199.97 287.84 208.36 284.89 210.86 286.03C213.36 287.16 222.84 291.36 224.48 294.2C226.13 297.04 228.31 299.63 227.21 299.65C226.11 299.66 224.48 299.65 224.48 299.65C224.48 299.65 224.1 303.64 223.57 304.19C223.05 304.73 220.85 299.65 220.85 299.65C220.85 299.65 220.42 299.21 219.94 299.65C219.47 300.08 218.13 302.37 218.13 302.37C218.13 302.37 216.37 299.91 216.31 300.55C216.25 301.19 215.4 308.73 215.4 308.73C215.4 308.73 210.09 302.45 209.96 304.19C209.82 305.92 208.79 311.39 208.14 312.36C207.49 313.32 205.75 308.61 204.51 308.73C203.27 308.84 202.7 308.36 202.69 309.63C202.68 310.9 202.36 317.18 201.78 317.81C201.21 318.43 198.17 315.17 197.24 315.99C196.32 316.81 198.15 320.53 198.15 320.53C198.15 320.53 199.32 323.3 199.06 324.16C198.8 325.02 196.32 321.92 196.34 323.25C196.35 324.59 200.23 335.55 200.88 332.33C201.42 329.61 202.69 327.79 202.69 327.79C202.69 327.79 205.44 331.32 206.32 331.42C207.21 331.53 208.22 331.78 208.14 330.52C208.06 329.26 207.61 323.57 208.14 323.25C208.67 322.94 211.88 326.41 212.68 325.98C213.4 325.59 214.38 325.14 214.5 323.25C214.61 321.36 214.09 316.12 214.5 315.99C214.9 315.86 218.81 318.51 219.03 317.81C219.26 317.1 220.94 317.88 220.85 315.99C220.76 314.1 220.56 310.42 220.85 309.63C221.14 308.85 224.8 312.33 225.39 311.45C225.98 310.57 226.25 306.95 226.3 306C226.34 305.06 227.21 305.09 227.21 305.09C227.21 305.09 229.41 306.34 229.93 306C230.45 305.67 231.54 306.26 233.56 305.09C235.59 303.92 235.38 301.46 235.38 301.46C235.38 301.46 241.1 308.09 242.64 307.82C243.83 307.61 243.55 312.36 243.55 312.36C243.55 312.36 243.82 313.55 244.46 313.27C245.09 312.98 248.94 315.96 249 316.9C249.04 317.6 247.51 319.28 246.27 319.62C245.04 319.97 243.83 320.7 241.73 321.44C239.64 322.17 237.65 321.92 237.19 322.34C236.74 322.77 232.8 328.28 231.75 328.7C230.69 329.12 232.65 325.07 232.65 325.07C232.65 325.07 231.56 325.36 230.84 325.98C230.11 326.6 230.84 324.16 230.84 324.16C230.84 324.16 231.91 322.03 228.11 325.07C224.32 328.11 218.13 334.15 218.13 334.15C218.13 334.15 225.66 336.1 226.3 336.87C226.93 337.65 220.24 337.16 216.31 341.41C212.39 345.67 210.66 348.79 211.77 348.68C212.88 348.56 219.94 341.41 219.94 341.41C219.94 341.41 216.5 349.49 216.31 350.49C216.12 351.5 216.89 351.55 218.13 351.4C219.36 351.25 223.57 351.4 223.57 351.4C223.57 351.4 219.55 352.41 219.03 353.22C218.52 354.02 218.53 355.42 219.94 355.94C221.36 356.46 230.64 362.57 230.84 363.2C231.04 363.84 230.28 364.26 229.02 364.11C227.76 363.96 223.15 362.33 221.76 361.39C220.37 360.44 212.88 354.39 212.68 355.03C212.48 355.67 216.09 362.1 216.31 362.29C216.53 362.49 221.25 370.72 221.76 372.28C222.26 373.85 222.73 376.67 222.67 376.82C222.61 376.97 222.67 378.64 222.67 378.64Z" />
		<path id="Shape 2" class="shp1" d="M209.96 340.5C211.73 339.17 212.71 338.76 212.68 337.78C212.65 336.8 210.15 335.4 209.05 335.96C207.95 336.53 206.23 339.34 206.32 339.6C206.42 339.85 206.65 341.51 207.23 341.41C207.81 341.32 208.18 341.84 209.96 340.5Z" />
	</g>
</svg>
